<?xml version="1.0" standalone="no"?>
<!DOCTYPE svg PUBLIC "-//W3C//DTD SVG 20010904//EN"
 "http://www.w3.org/TR/2001/REC-SVG-20010904/DTD/svg10.dtd">
<svg version="1.0" xmlns="http://www.w3.org/2000/svg"
 width="200.000000pt" height="200.000000pt" viewBox="0 0 200.000000 200.000000"
 preserveAspectRatio="xMidYMid meet">

<g transform="translate(0.000000,200.000000) scale(0.100000,-0.100000)"
fill="#000000" stroke="none">
<path d="M895 1994 c-424 -62 -756 -366 -851 -779 -29 -125 -25 -340 9 -468
148 -555 727 -873 1268 -697 267 88 466 260 590 511 17 37 29 73 26 82 -3 8
-32 28 -64 43 -48 24 -70 29 -133 28 -95 0 -162 -32 -204 -96 -20 -31 -16 -42
37 -87 45 -40 47 -56 6 -70 -48 -17 -96 -13 -200 14 -103 27 -168 32 -187 13
-17 -17 -15 -53 3 -68 31 -25 17 -40 -36 -40 -159 0 -392 122 -527 276 -24 27
-62 87 -85 134 -40 82 -42 90 -45 197 -3 93 0 124 17 181 94 310 460 464 754
316 32 -16 96 -70 167 -138 130 -127 145 -138 220 -160 67 -20 112 -20 179 0
54 16 131 75 131 100 0 36 -68 184 -120 263 -139 207 -352 358 -598 422 -75
20 -286 33 -357 23z"/>
<path d="M884 1095 c-39 -60 19 -180 86 -180 27 0 35 5 42 27 13 39 -8 106
-47 145 -40 40 -59 41 -81 8z"/>
<path d="M638 1029 c-21 -12 -25 -78 -7 -112 20 -39 52 -67 76 -67 56 0 49
116 -9 165 -33 28 -36 29 -60 14z"/>
</g>
</svg>
